<svg xmlns="http://www.w3.org/2000/svg" version="1.1" xmlns:xlink="http://www.w3.org/1999/xlink" width="512" height="512" x="0" y="0" viewBox="0 0 48 48" style="enable-background:new 0 0 512 512" xml:space="preserve" class=""><g><path d="M44.5 24c0 11.3-9.2 20.5-20.5 20.5S3.5 35.3 3.5 24 12.7 3.5 24 3.5v-3C11 .5.5 11 .5 24S11 47.5 24 47.5 47.5 37 47.5 24z" fill="#fa7516" opacity="1" data-original="#000000" class=""></path><path d="M38 24c0 7.7-6.3 14-14 14s-14-6.3-14-14c0-3.9 1.6-7.6 4.5-10.2l-2-2.2C9 14.8 7 19.3 7 24c0 9.4 7.6 17 17 17s17-7.6 17-17c0-5.2-2.4-10.1-6.5-13.3L32.6 13C36 15.7 38 19.7 38 24z" fill="#fa7516" opacity="1" data-original="#000000" class=""></path><path d="m15.5 18.2 2.5 1.7c1.4-2 3.6-3.2 6-3.2 4 0 7.3 3.3 7.3 7.3S28 31.3 24 31.3c-2.9 0-5.5-1.7-6.7-4.4l-2.8 1.2c1.6 3.8 5.3 6.2 9.5 6.2 5.7 0 10.3-4.6 10.3-10.3S29.7 13.7 24 13.7c-3.4 0-6.6 1.7-8.5 4.5z" fill="#fa7516" opacity="1" data-original="#000000" class=""></path></g></svg>