<svg clip-rule="evenodd" fill-rule="evenodd" height="512" stroke-linejoin="round" stroke-miterlimit="2" viewBox="0 0 24 24" width="512" xmlns="http://www.w3.org/2000/svg">
<g id="Icon">
<path fill="#db2777" d="m12 1.25c5.933 0 10.75 4.817 10.75 10.75s-4.817 10.75-10.75 10.75-10.75-4.817-10.75-10.75 4.817-10.75 10.75-10.75zm-1.25 6.375.5 6c0 .414.336.75.75.75s.75-.336.75-.75l.5-6c0-.414-.25-1.25-1.25-1.25s-1.25.836-1.25 1.25zm1.25 8c-.552 0-1 .448-1 1s.448 1 1 1 1-.448 1-1-.448-1-1-1z"/>
</g>
</svg>