<svg height="512" viewBox="0 0 64 64" width="512" xmlns="http://www.w3.org/2000/svg"><g id="Idea"><path fill="#15803d" d="m32 10a1 1 0 0 0 1-1v-4a1 1 0 0 0 -2 0v4a1 1 0 0 0 1 1z"/><path fill="#15803d" d="m17.1509 15.5649a1 1 0 1 0 1.414-1.414l-2.8286-2.8286a1 1 0 1 0 -1.414 1.414z"/><path fill="#15803d" d="m12 28h-4a1 1 0 0 0 0 2h4a1 1 0 0 0 0-2z"/><path fill="#15803d" d="m17.1509 42.4351-2.8286 2.8286a1 1 0 1 0 1.414 1.414l2.8286-2.8286a1 1 0 0 0 -1.414-1.414z"/><path fill="#15803d" d="m48.2637 11.3223-2.8286 2.8286a1 1 0 1 0 1.414 1.414l2.8286-2.8286a1 1 0 1 0 -1.414-1.414z"/><path fill="#15803d" d="m46.8491 42.4351a1 1 0 0 0 -1.414 1.414l2.8286 2.8286a1 1 0 0 0 1.414-1.414z"/><path fill="#15803d" d="m56 28h-4a1 1 0 0 0 0 2h4a1 1 0 0 0 0-2z"/><path fill="#15803d" d="m24 54a2.002 2.002 0 0 0 2 2h2v2a2.002 2.002 0 0 0 2 2h4a2.002 2.002 0 0 0 2-2v-2h2a2.002 2.002 0 0 0 2-2v-2h-16z"/><path fill="#15803d" d="m24 48h16v2h-16z"/><path fill="#15803d" d="m43.335 16.33a16.8647 16.8647 0 0 0 -13.2745-4.2227 16.99 16.99 0 0 0 -6.0605 31.8751v2.0176h7v-4.5859l-2.707-2.7071a1 1 0 0 1 1.414-1.414l2.293 2.2929 2.293-2.2929a1 1 0 0 1 1.414 1.414l-2.707 2.7071v4.5859h7v-2.0171a16.984 16.984 0 0 0 3.335-27.6529z"/></g></svg>